<svg width="20" height="24" viewBox="0 0 20 24" fill="none" xmlns="http://www.w3.org/2000/svg">
<path d="M2 4.17V17C1.9998 18.2694 2.48247 19.4914 3.35008 20.4181C4.21769 21.3448 5.4053 21.9067 6.672 21.99L7 22H15.828C15.6212 22.5848 15.2383 23.0912 14.7318 23.4494C14.2253 23.8075 13.6203 23.9999 13 24H6C4.4087 24 2.88258 23.3679 1.75736 22.2426C0.632142 21.1174 4.12473e-07 19.5913 4.12473e-07 18V7C-0.00032496 6.37935 0.191856 5.77387 0.550056 5.26702C0.908257 4.76016 1.41484 4.37688 2 4.17ZM17 0C17.7956 0 18.5587 0.316071 19.1213 0.87868C19.6839 1.44129 20 2.20435 20 3V17C20 17.7956 19.6839 18.5587 19.1213 19.1213C18.5587 19.6839 17.7956 20 17 20H7C6.20435 20 5.44129 19.6839 4.87868 19.1213C4.31607 18.5587 4 17.7956 4 17V3C4 2.20435 4.31607 1.44129 4.87868 0.87868C5.44129 0.316071 6.20435 0 7 0H17Z" fill="#413AE2"/>
</svg>
