<svg width="25" height="25" viewBox="0 0 32 32" fill="none" xmlns="http://www.w3.org/2000/svg">
<path fill-rule="evenodd" clip-rule="evenodd" d="M2.66675 24C2.66675 23.2636 3.26371 22.6667 4.00008 22.6667H28.0001C28.7365 22.6667 29.3334 23.2636 29.3334 24C29.3334 24.7364 28.7365 25.3334 28.0001 25.3334H4.00008C3.26371 25.3334 2.66675 24.7364 2.66675 24Z" fill="#9C9C9C"/>
<path fill-rule="evenodd" clip-rule="evenodd" d="M2.66675 16C2.66675 15.2636 3.26371 14.6667 4.00008 14.6667H28.0001C28.7365 14.6667 29.3334 15.2636 29.3334 16C29.3334 16.7364 28.7365 17.3334 28.0001 17.3334H4.00008C3.26371 17.3334 2.66675 16.7364 2.66675 16Z" fill="#9C9C9C"/>
<path fill-rule="evenodd" clip-rule="evenodd" d="M2.66675 8.00002C2.66675 7.26365 3.26371 6.66669 4.00008 6.66669H28.0001C28.7365 6.66669 29.3334 7.26365 29.3334 8.00002C29.3334 8.73639 28.7365 9.33335 28.0001 9.33335H4.00008C3.26371 9.33335 2.66675 8.73639 2.66675 8.00002Z" fill="#9C9C9C"/>
</svg>
