<svg width="24" height="24" viewBox="0 0 24 24" fill="none" xmlns="http://www.w3.org/2000/svg">
<g clip-path="url(#clip0)">
<path d="M21.8716 16.615L20.478 21.327L17.7422 20.5788L21.8716 16.615Z" fill="#E4761B" stroke="#E4761B" stroke-width="0.190564"/>
<path d="M17.7422 20.5788L20.3809 16.9634L21.8716 16.615L17.7422 20.5788Z" fill="#E4761B" stroke="#E4761B" stroke-width="0.190564"/>
<path d="M19.8213 13.0625L21.8717 16.6151L20.381 16.9635L19.8213 13.0625ZM19.8213 13.0625L21.1407 12.1487L21.8717 16.6151L19.8213 13.0625Z" fill="#F6851B" stroke="#F6851B" stroke-width="0.190564"/>
<path d="M18.1416 10.378L21.9341 8.82446L21.7456 9.67549L18.1416 10.378ZM21.6257 10.6979L18.1416 10.378L21.7456 9.67549L21.6257 10.6979Z" fill="#763D16" stroke="#763D16" stroke-width="0.190564"/>
<path d="M21.6257 10.6979L21.1402 12.1486L18.1416 10.378L21.6257 10.6979ZM22.3853 9.18429L21.7456 9.67549L21.9341 8.82446L22.3853 9.18429ZM21.6257 10.6979L21.7456 9.67549L22.2539 10.0981L21.6257 10.6979Z" fill="#763D16" stroke="#763D16" stroke-width="0.190564"/>
<path d="M14.8008 19.4309L15.7489 19.7336L17.7422 20.5789L14.8008 19.4309Z" fill="#E2761B" stroke="#E2761B" stroke-width="0.190564"/>
<path d="M21.1403 12.1485L21.6258 10.6978L22.0428 11.0176L21.1403 12.1485ZM21.1403 12.1485L17.2051 10.852L18.1418 10.3779L21.1403 12.1485Z" fill="#763D16" stroke="#763D16" stroke-width="0.190564"/>
<path d="M19.0785 5.92847L18.1418 10.3778L17.2051 10.8518L19.0785 5.92847Z" fill="#763D16" stroke="#763D16" stroke-width="0.190564"/>
<path d="M21.9341 8.82423L18.1416 10.3778L19.0783 5.92847L21.9341 8.82423Z" fill="#763D16" stroke="#763D16" stroke-width="0.190564"/>
<path d="M19.0781 5.9286L23.0362 5.47168L21.9339 8.82437L19.0781 5.9286Z" fill="#763D16" stroke="#763D16" stroke-width="0.190564"/>
<path d="M21.1403 12.1486L19.821 13.0624L17.2051 10.8521L21.1403 12.1486Z" fill="#F6851B" stroke="#F6851B" stroke-width="0.190564"/>
<path d="M22.8649 2.26758L23.0362 5.47177L19.0781 5.92869L22.8649 2.26758Z" fill="#763D16" stroke="#763D16" stroke-width="0.190564"/>
<path d="M22.8649 2.26758L14.9544 8.01912L14.8516 4.11813L22.8649 2.26758Z" fill="#E2761B" stroke="#E2761B" stroke-width="0.190564"/>
<path d="M8.96875 3.64966L14.8517 4.11801L14.9545 8.01901L8.96875 3.64966Z" fill="#F6851B" stroke="#F6851B" stroke-width="0.190564"/>
<path d="M17.2054 10.8518L14.9551 8.0189L19.0788 5.92847L17.2054 10.8518Z" fill="#763D16" stroke="#763D16" stroke-width="0.190564"/>
<path d="M17.2051 10.8521L19.821 13.0624L16.1484 13.4679L17.2051 10.8521Z" fill="#E4761B" stroke="#E4761B" stroke-width="0.190564"/>
<path d="M16.1488 13.4679L14.9551 8.01904L17.2054 10.852L16.1488 13.4679Z" fill="#E4761B" stroke="#E4761B" stroke-width="0.190564"/>
<path d="M19.0788 5.92869L14.9551 8.01912L22.8656 2.26758L19.0788 5.92869Z" fill="#763D16" stroke="#763D16" stroke-width="0.190564"/>
<path d="M9.02064 20.4874L10.8883 22.435L8.34668 20.1218L9.02064 20.4874Z" fill="#C0AD9E" stroke="#C0AD9E" stroke-width="0.190564"/>
<path d="M17.7422 20.5788L18.6275 17.2147L20.3809 16.9634L17.7422 20.5788Z" fill="#CD6116" stroke="#CD6116" stroke-width="0.190564"/>
<path d="M1.44629 11.1147L4.67904 7.71631L1.86323 10.7092L1.44629 11.1147Z" fill="#E2761B" stroke="#E2761B" stroke-width="0.190564"/>
<path d="M20.3805 16.9633L18.627 17.2146L19.8207 13.0623L20.3805 16.9633ZM14.9545 8.01901L11.8074 7.9162L8.96875 3.64966L14.9545 8.01901Z" fill="#F6851B" stroke="#F6851B" stroke-width="0.190564"/>
<path d="M19.8211 13.0623L18.6274 17.2146L18.5303 15.187L19.8211 13.0623Z" fill="#E4751F" stroke="#E4751F" stroke-width="0.190564"/>
<path d="M16.1484 13.4678L19.821 13.0623L18.5302 15.187L16.1484 13.4678Z" fill="#CD6116" stroke="#CD6116" stroke-width="0.190564"/>
<path d="M11.8076 7.91626L14.9547 8.01907L16.1484 13.4679L11.8076 7.91626Z" fill="#F6851B" stroke="#F6851B" stroke-width="0.190564"/>
<path d="M11.8076 7.91624L3.31454 0.0571289L8.96899 3.6497L11.8076 7.91624ZM8.96328 21.6811L1.58394 23.9657L0.110352 18.3399L8.96328 21.6811Z" fill="#E4761B" stroke="#E4761B" stroke-width="0.190564"/>
<path d="M2.54395 12.5198L5.33119 10.3323L7.66722 10.8749L2.54395 12.5198Z" fill="#763D16" stroke="#763D16" stroke-width="0.190564"/>
<path d="M7.66708 10.8748L5.33105 10.3322L6.58189 5.16895L7.66708 10.8748Z" fill="#763D16" stroke="#763D16" stroke-width="0.190564"/>
<path d="M1.86426 10.7092L5.33118 10.3323L2.54393 12.5198L1.86426 10.7092Z" fill="#763D16" stroke="#763D16" stroke-width="0.190564"/>
<path d="M18.5302 15.187L17.0908 14.4616L16.1484 13.4678L18.5302 15.187Z" fill="#CD6116" stroke="#CD6116" stroke-width="0.190564"/>
<path d="M1.86376 10.7091L1.61816 9.4126L5.33068 10.3322L1.86376 10.7091Z" fill="#763D16" stroke="#763D16" stroke-width="0.190564"/>
<path d="M16.7939 16.0952L17.0909 14.4617L18.5303 15.187L16.7939 16.0952Z" fill="#233447" stroke="#233447" stroke-width="0.190564"/>
<path d="M18.6274 17.2146L16.7939 16.0952L18.5303 15.187L18.6274 17.2146Z" fill="#F6851B" stroke="#F6851B" stroke-width="0.190564"/>
<path d="M5.33066 10.3322L1.61814 9.41264L1.31543 8.32173L5.33066 10.3322ZM6.58149 5.16895L5.33066 10.3322L1.31543 8.32173L6.58149 5.16895ZM6.58149 5.16895L11.8076 7.91621L7.66669 10.8748L6.58149 5.16895Z" fill="#763D16" stroke="#763D16" stroke-width="0.190564"/>
<path d="M7.66699 10.8749L11.8079 7.91626L13.6527 13.5536L7.66699 10.8749ZM13.6527 13.5536L7.92972 13.4336L7.66699 10.8749L13.6527 13.5536Z" fill="#E4761B" stroke="#E4761B" stroke-width="0.190564"/>
<path d="M2.54395 12.5198L7.66722 10.8749L7.92995 13.4336L2.54395 12.5198ZM16.1489 13.4679L13.6529 13.5536L11.8081 7.91626L16.1489 13.4679Z" fill="#F6851B" stroke="#F6851B" stroke-width="0.190564"/>
<path d="M17.0908 14.4616L16.7938 16.0951L16.1484 13.4678L17.0908 14.4616Z" fill="#CD6116" stroke="#CD6116" stroke-width="0.190564"/>
<path d="M3.31445 0.0571289L11.8076 7.91624L6.58147 5.16898L3.31445 0.0571289Z" fill="#763D16" stroke="#763D16" stroke-width="0.190564"/>
<path d="M0.110352 18.3397L7.27266 18.0427L8.96328 21.681L0.110352 18.3397Z" fill="#E4761B" stroke="#E4761B" stroke-width="0.190564"/>
<path d="M8.96308 21.6812L7.27246 18.0429L10.7908 17.8716L8.96308 21.6812Z" fill="#CD6116" stroke="#CD6116" stroke-width="0.190564"/>
<path d="M16.7938 16.0952L18.6272 17.2147L19.6382 19.5964L16.7938 16.0952ZM7.92948 13.4336L0.110352 18.3399L2.54348 12.5198L7.92948 13.4336ZM7.27265 18.0429L0.110352 18.3399L7.92948 13.4336L7.27265 18.0429ZM16.1484 13.4679L16.6168 15.1699L14.355 15.3013L16.1484 13.4679ZM14.355 15.3013L13.6525 13.5536L16.1484 13.4679L14.355 15.3013Z" fill="#F6851B" stroke="#F6851B" stroke-width="0.190564"/>
<path d="M10.8877 22.4351L8.96289 21.6812L15.6568 22.8063L10.8877 22.4351Z" fill="#C0AD9E" stroke="#C0AD9E" stroke-width="0.190564"/>
<path d="M2.54291 12.5198L1.44629 11.1148L1.86323 10.7092L2.54291 12.5198Z" fill="#763D16" stroke="#763D16" stroke-width="0.190564"/>
<path d="M16.4165 21.9724L15.6568 22.8063L8.96289 21.6812L16.4165 21.9724Z" fill="#D7C1B3" stroke="#D7C1B3" stroke-width="0.190564"/>
<path d="M16.7763 19.9277L8.96289 21.6812L10.7906 17.8716L16.7763 19.9277Z" fill="#E4761B" stroke="#E4761B" stroke-width="0.190564"/>
<path d="M8.96289 21.6812L16.7763 19.9277L16.4165 21.9725L8.96289 21.6812Z" fill="#D7C1B3" stroke="#D7C1B3" stroke-width="0.190564"/>
<path d="M1.31561 8.32164L1.05859 3.92944L6.58168 5.16885L1.31561 8.32164ZM1.86392 10.7091L1.10429 9.93801L1.61833 9.41255L1.86392 10.7091Z" fill="#763D16" stroke="#763D16" stroke-width="0.190564"/>
<path d="M12.373 14.6844L13.6524 13.5535L13.4697 16.3179L12.373 14.6844Z" fill="#CD6116" stroke="#CD6116" stroke-width="0.190564"/>
<path d="M13.6521 13.5535L12.3727 14.6844L10.5107 15.6496L13.6521 13.5535Z" fill="#CD6116" stroke="#CD6116" stroke-width="0.190564"/>
<path d="M19.6383 19.5964L19.2899 19.3394L16.7939 16.0952L19.6383 19.5964Z" fill="#F6851B" stroke="#F6851B" stroke-width="0.190564"/>
<path d="M10.5113 15.6497L7.92969 13.4336L13.6527 13.5535L10.5113 15.6497Z" fill="#CD6116" stroke="#CD6116" stroke-width="0.190564"/>
<path d="M13.4697 16.3179L13.6525 13.5535L14.355 15.3012L13.4697 16.3179Z" fill="#E4751F" stroke="#E4751F" stroke-width="0.190564"/>
<path d="M0.852539 8.75586L1.31518 8.32178L1.61789 9.41269L0.852539 8.75586Z" fill="#763D16" stroke="#763D16" stroke-width="0.190564"/>
<path d="M13.4693 16.3178L10.5107 15.6496L12.3727 14.6843L13.4693 16.3178Z" fill="#233447" stroke="#233447" stroke-width="0.190564"/>
<path d="M6.58168 5.16898L1.05859 3.92957L3.31466 0.0571289L6.58168 5.16898Z" fill="#763D16" stroke="#763D16" stroke-width="0.190564"/>
<path d="M15.6569 22.8063L15.971 23.663L10.8877 22.4351L15.6569 22.8063Z" fill="#C0AD9E" stroke="#C0AD9E" stroke-width="0.190564"/>
<path d="M10.7906 17.8715L10.5107 15.6497L13.4693 16.3179L10.7906 17.8715Z" fill="#F6851B" stroke="#F6851B" stroke-width="0.190564"/>
<path d="M7.92969 13.4336L10.5113 15.6497L10.7912 17.8715L7.92969 13.4336Z" fill="#E4751F" stroke="#E4751F" stroke-width="0.190564"/>
<path d="M14.3548 15.3013L16.6166 15.1699L19.2896 19.3394L14.3548 15.3013ZM7.92929 13.4336L10.7908 17.8715L7.27246 18.0428L7.92929 13.4336Z" fill="#F6851B" stroke="#F6851B" stroke-width="0.190564"/>
<path d="M14.355 15.3013L17.1651 19.5792L13.4697 16.3179L14.355 15.3013Z" fill="#E4751F" stroke="#E4751F" stroke-width="0.190564"/>
<path d="M13.4697 16.3179L17.1651 19.5792L16.7767 19.9276L13.4697 16.3179Z" fill="#F6851B" stroke="#F6851B" stroke-width="0.190564"/>
<path d="M16.7767 19.9276L10.791 17.8715L13.4697 16.3179L16.7767 19.9276ZM19.2898 19.3393L17.1651 19.5792L14.355 15.3013L19.2898 19.3393Z" fill="#F6851B" stroke="#F6851B" stroke-width="0.190564"/>
<path d="M19.8495 21.3499L18.9357 23.1833L15.9714 23.663L19.8495 21.3499ZM15.9714 23.663L15.6572 22.8063L16.4169 21.9724L15.9714 23.663Z" fill="#C0AD9E" stroke="#C0AD9E" stroke-width="0.190564"/>
<path d="M16.4172 21.9724L16.9769 21.7497L15.9717 23.663L16.4172 21.9724ZM15.9717 23.663L16.9769 21.7497L19.8498 21.3499L15.9717 23.663Z" fill="#C0AD9E" stroke="#C0AD9E" stroke-width="0.190564"/>
<path d="M19.2901 19.3394L19.9926 19.7677L17.8564 20.0247L19.2901 19.3394Z" fill="#161616" stroke="#161616" stroke-width="0.190564"/>
<path d="M17.8561 20.0247L17.165 19.5792L19.2897 19.3394L17.8561 20.0247ZM17.6105 20.3617L20.2093 20.0476L19.8495 21.3498L17.6105 20.3617Z" fill="#161616" stroke="#161616" stroke-width="0.190564"/>
<path d="M19.8496 21.3499L16.9767 21.7497L17.6107 20.3618L19.8496 21.3499ZM16.9767 21.7497L16.417 21.9725L16.7768 19.9278L16.9767 21.7497ZM16.7768 19.9278L17.1652 19.5793L17.8563 20.0248L16.7768 19.9278ZM19.9924 19.7678L20.2095 20.0477L17.6107 20.3618L19.9924 19.7678Z" fill="#161616" stroke="#161616" stroke-width="0.190564"/>
<path d="M17.6103 20.3618L17.8559 20.0248L19.992 19.7678L17.6103 20.3618ZM16.7764 19.9277L17.6103 20.3618L16.9763 21.7497L16.7764 19.9277Z" fill="#161616" stroke="#161616" stroke-width="0.190564"/>
<path d="M17.8559 20.0248L17.6103 20.3618L16.7764 19.9277L17.8559 20.0248Z" fill="#161616" stroke="#161616" stroke-width="0.190564"/>
</g>
<defs>
<clipPath id="clip0">
<rect width="23.0784" height="24" fill="white"/>
</clipPath>
</defs>
</svg>
