<svg width="90" height="90" viewBox="0 0 90 90" fill="none" xmlns="http://www.w3.org/2000/svg">
<path d="M5.625 45C5.625 23.2537 23.2537 5.625 45 5.625C66.7463 5.625 84.375 23.2537 84.375 45C84.375 66.7463 66.7463 84.375 45 84.375C23.2537 84.375 5.625 66.7463 5.625 45ZM63.8634 35.7384C64.3758 35.208 64.6592 34.4976 64.6528 33.7601C64.6464 33.0227 64.3506 32.3173 63.8292 31.7958C63.3077 31.2744 62.6023 30.9786 61.8649 30.9722C61.1274 30.9658 60.417 31.2492 59.8866 31.7616L40.7812 50.8669L31.5197 41.6053C30.9892 41.093 30.2788 40.8095 29.5414 40.8159C28.8039 40.8223 28.0985 41.1181 27.5771 41.6396C27.0556 42.161 26.7598 42.8664 26.7534 43.6039C26.747 44.3413 27.0305 45.0517 27.5428 45.5822L38.7928 56.8322C39.3202 57.3595 40.0355 57.6556 40.7812 57.6556C41.527 57.6556 42.2423 57.3595 42.7697 56.8322L63.8634 35.7384Z" fill="#47B504"/>
</svg>
